<?xml version="1.0" standalone="no"?>
<svg xmlns:xlink="http://www.w3.org/1999/xlink" id="wave" style="transform:rotate(0deg); transition: 0.3s" viewBox="0 0 1440 100" version="1.1" xmlns="http://www.w3.org/2000/svg"><defs><linearGradient id="sw-gradient-0" x1="0" x2="0" y1="1" y2="0"><stop stop-color="rgba(4, 29, 123, 1)" offset="0%"/><stop stop-color="rgba(4, 29, 123, 1)" offset="100%"/></linearGradient></defs><path style="transform:translate(0, 0px); opacity:1" fill="url(#sw-gradient-0)" d="M0,90L40,85C80,80,160,70,240,56.7C320,43,400,27,480,21.7C560,17,640,23,720,28.3C800,33,880,37,960,45C1040,53,1120,67,1200,65C1280,63,1360,47,1440,33.3C1520,20,1600,10,1680,15C1760,20,1840,40,1920,53.3C2000,67,2080,73,2160,71.7C2240,70,2320,60,2400,51.7C2480,43,2560,37,2640,33.3C2720,30,2800,30,2880,26.7C2960,23,3040,17,3120,13.3C3200,10,3280,10,3360,18.3C3440,27,3520,43,3600,51.7C3680,60,3760,60,3840,51.7C3920,43,4000,27,4080,20C4160,13,4240,17,4320,15C4400,13,4480,7,4560,13.3C4640,20,4720,40,4800,53.3C4880,67,4960,73,5040,66.7C5120,60,5200,40,5280,26.7C5360,13,5440,7,5520,5C5600,3,5680,7,5720,8.3L5760,10L5760,100L5720,100C5680,100,5600,100,5520,100C5440,100,5360,100,5280,100C5200,100,5120,100,5040,100C4960,100,4880,100,4800,100C4720,100,4640,100,4560,100C4480,100,4400,100,4320,100C4240,100,4160,100,4080,100C4000,100,3920,100,3840,100C3760,100,3680,100,3600,100C3520,100,3440,100,3360,100C3280,100,3200,100,3120,100C3040,100,2960,100,2880,100C2800,100,2720,100,2640,100C2560,100,2480,100,2400,100C2320,100,2240,100,2160,100C2080,100,2000,100,1920,100C1840,100,1760,100,1680,100C1600,100,1520,100,1440,100C1360,100,1280,100,1200,100C1120,100,1040,100,960,100C880,100,800,100,720,100C640,100,560,100,480,100C400,100,320,100,240,100C160,100,80,100,40,100L0,100Z"/></svg>